<mxfile host="app.diagrams.net" modified="2024-04-13T11:32:26.097Z" agent="Mozilla/5.0 (Macintosh; Intel Mac OS X 10_15_7) AppleWebKit/537.36 (KHTML, like Gecko) Chrome/120.0.0.0 Whale/3.24.223.18 Safari/537.36" version="24.2.2" etag="Sxx8wFNMmUo5DyqaW9bu" type="github">
  <diagram name="페이지-1" id="Lt6r8ykQ9Q0Yg0qslGpr">
    <mxGraphModel>
      <root>
        <mxCell id="0" />
        <mxCell id="1" parent="0" />
      </root>
    </mxGraphModel>
  </diagram>
</mxfile>
